# xmcd CD database file generated by OrangeCD 6.0
#
# Track frame offsets:
#	150
#	15462
#	42527
#	57095
#	70827
#	87920
#	115467
#	136222
#	152635
#	166510
#	179675
#	194772
#	207682
#	221392
#
# Disc length: 3619 seconds
#
# Revision: 0
# Processed by: cddbd v1.5.2PL0 Copyright (c) Steve Scherf et al.
# Submitted via: OrangeCD 6.0
#
DISCID=ca0e210e
DTITLE=Andy Statman - Awakening From Above
DYEAR=1900
DGENRE=
TTITLE0=Yedid Nefesh
TTITLE1=Habbad Niggun
TTITLE2=Modzitz Schlomo
TTITLE3=Foreshpiel
TTITLE4=New Modzitz
TTITLE5=Rosh Chodesh Bentshen
TTITLE6=Galicianer Shuffle
TTITLE7=Yaakov Avinu
TTITLE8=Meron
TTITLE9=Vishnitz
TTITLE10=Breslov
TTITLE11=Modzitz Waltz
TTITLE12=New L'Cha Dodi
TTITLE13=Reb Michel
EXTD=
EXTT0=
EXTT1=
EXTT2=
EXTT3=
EXTT4=
EXTT5=
EXTT6=
EXTT7=
EXTT8=
EXTT9=
EXTT10=
EXTT11=
EXTT12=
EXTT13=
PLAYORDER=
